<svg width="23" height="23" viewBox="0 0 23 23" fill="none" xmlns="http://www.w3.org/2000/svg">
<path d="M11.4998 3.44226C8.81701 3.44226 6.6344 5.62488 6.6344 8.30769C6.6344 9.60975 7.14788 11.0873 8.00796 12.26C8.98077 13.5865 10.2209 14.317 11.4998 14.317C12.7788 14.317 14.0189 13.5865 14.9918 12.26C15.8518 11.0873 16.3653 9.60975 16.3653 8.30769C16.3653 5.62488 14.1826 3.44226 11.4998 3.44226ZM11.4998 13.2797C10.5734 13.2797 9.60559 12.6845 8.84447 11.6465C8.1211 10.6602 7.67173 9.38085 7.67173 8.30769C7.67173 6.19686 9.389 4.47959 11.4998 4.47959C13.6107 4.47959 15.3279 6.19686 15.3279 8.30769C15.328 10.4993 13.5255 13.2797 11.4998 13.2797Z" fill="white"/>
<path d="M11.5 0C5.15893 0 0 5.15886 0 11.5C0 17.8411 5.15886 23 11.5 23C17.8411 23 23 17.8411 23 11.5C23 5.15886 17.8411 0 11.5 0ZM11.5 21.9627C9.41849 21.9626 7.47716 21.3514 5.84564 20.2993C5.90235 18.7109 6.62143 17.2217 7.83898 16.1878C8.32279 15.7769 9.02928 15.732 9.59705 16.0761C10.2103 16.4477 10.8506 16.6362 11.5002 16.6362C12.1496 16.6362 12.7897 16.4478 13.4027 16.0764C13.9699 15.7327 14.6745 15.7759 15.156 16.1839C16.3745 17.2164 17.0977 18.7099 17.1543 20.2995C15.5228 21.3515 13.5814 21.9627 11.5 21.9627ZM18.1321 19.5861C17.9081 17.9621 17.094 16.4664 15.8266 15.3925C15.0044 14.6958 13.8142 14.6141 12.8651 15.1892C11.9679 15.7329 11.0321 15.7328 10.1347 15.189C9.18447 14.6131 7.99216 14.6968 7.16748 15.3971C5.90124 16.4724 5.0904 17.9638 4.86702 19.5854C2.53033 17.6649 1.03733 14.7536 1.03733 11.5001C1.03733 5.73084 5.73091 1.03733 11.5 1.03733C17.2692 1.03733 21.9627 5.73084 21.9627 11.5C21.9627 14.754 20.4693 17.6656 18.1321 19.5861Z" fill="white"/>
</svg>
