<svg width="32" height="32" viewBox="0 0 32 32" fill="none" xmlns="http://www.w3.org/2000/svg">
<rect width="32" height="32" rx="6" fill="white"/>
<path d="M6.3833 18H5.79736V15.522H5.76318L4.78906 17.8633H4.33984L3.36572 15.522H3.33154V18H2.74561V14.4771H3.48291L4.54248 17.043H4.58643L5.646 14.4771H6.3833V18ZM7.48193 18.9692C7.35661 18.9692 7.27686 18.966 7.24268 18.9595V18.4639C7.2736 18.4704 7.32894 18.4736 7.40869 18.4736C7.53727 18.4736 7.639 18.4468 7.71387 18.3931C7.79036 18.3394 7.84814 18.2515 7.88721 18.1294L7.91895 18.0122L6.96436 15.3291H7.62842L8.25342 17.4141H8.29492L8.91748 15.3291H9.55713L8.59277 18.0854C8.48047 18.4159 8.34212 18.6453 8.17773 18.7739C8.01497 18.9041 7.78304 18.9692 7.48193 18.9692Z" fill="#1785ED"/>
<path d="M11.6494 18H10.1431V14.4771H11.6152C11.9489 14.4771 12.2109 14.556 12.4014 14.7139C12.5918 14.8701 12.687 15.0841 12.687 15.356C12.687 15.5415 12.6268 15.7067 12.5063 15.8516C12.3859 15.9964 12.237 16.0827 12.0596 16.1104V16.1543C12.2972 16.1771 12.4901 16.2666 12.6382 16.4229C12.7863 16.5775 12.8604 16.7695 12.8604 16.999C12.8604 17.3083 12.7521 17.5524 12.5356 17.7314C12.3208 17.9105 12.0254 18 11.6494 18ZM10.7729 14.9775V15.959H11.3809C11.6038 15.959 11.7731 15.9175 11.8887 15.8345C12.0059 15.7498 12.0645 15.6278 12.0645 15.4683C12.0645 15.3136 12.0116 15.1932 11.9058 15.1069C11.8 15.0207 11.6519 14.9775 11.4614 14.9775H10.7729ZM10.7729 17.4995H11.5054C11.7381 17.4995 11.9147 17.4531 12.0352 17.3604C12.1556 17.266 12.2158 17.1292 12.2158 16.9502C12.2158 16.7744 12.1532 16.641 12.0278 16.5498C11.9041 16.4587 11.7218 16.4131 11.481 16.4131H10.7729V17.4995ZM14.6353 18.0537C14.2349 18.0537 13.9207 17.9308 13.6929 17.6851C13.465 17.4377 13.3511 17.0975 13.3511 16.6646C13.3511 16.2349 13.4658 15.8963 13.6953 15.6489C13.9248 15.3999 14.2381 15.2754 14.6353 15.2754C15.034 15.2754 15.3473 15.3991 15.5752 15.6465C15.8047 15.8939 15.9194 16.2332 15.9194 16.6646C15.9194 17.0975 15.8047 17.4377 15.5752 17.6851C15.3473 17.9308 15.034 18.0537 14.6353 18.0537ZM14.1445 17.3164C14.2601 17.4694 14.4237 17.5459 14.6353 17.5459C14.8468 17.5459 15.0096 17.4694 15.1235 17.3164C15.2391 17.1618 15.2969 16.9445 15.2969 16.6646C15.2969 16.3862 15.2391 16.1698 15.1235 16.0151C15.008 15.8605 14.8452 15.7832 14.6353 15.7832C14.4237 15.7832 14.2601 15.8605 14.1445 16.0151C14.029 16.1698 13.9712 16.3862 13.9712 16.6646C13.9712 16.9445 14.029 17.1618 14.1445 17.3164ZM17.6821 18.0537C17.2817 18.0537 16.9676 17.9308 16.7397 17.6851C16.5119 17.4377 16.3979 17.0975 16.3979 16.6646C16.3979 16.2349 16.5127 15.8963 16.7422 15.6489C16.9717 15.3999 17.285 15.2754 17.6821 15.2754C18.0809 15.2754 18.3942 15.3991 18.6221 15.6465C18.8516 15.8939 18.9663 16.2332 18.9663 16.6646C18.9663 17.0975 18.8516 17.4377 18.6221 17.6851C18.3942 17.9308 18.0809 18.0537 17.6821 18.0537ZM17.1914 17.3164C17.307 17.4694 17.4705 17.5459 17.6821 17.5459C17.8937 17.5459 18.0565 17.4694 18.1704 17.3164C18.286 17.1618 18.3438 16.9445 18.3438 16.6646C18.3438 16.3862 18.286 16.1698 18.1704 16.0151C18.0549 15.8605 17.8921 15.7832 17.6821 15.7832C17.4705 15.7832 17.307 15.8605 17.1914 16.0151C17.0758 16.1698 17.0181 16.3862 17.0181 16.6646C17.0181 16.9445 17.0758 17.1618 17.1914 17.3164ZM20.248 16.418L21.2344 15.3291H21.9375L20.873 16.4741L22.0107 18H21.2783L20.4214 16.855L20.2065 17.0698V18H19.6011V14.2964H20.2065V16.418H20.248ZM22.4844 18V15.3291H23.0874V18H22.4844ZM22.7847 14.8945C22.6756 14.8945 22.5861 14.8636 22.5161 14.8018C22.4461 14.7383 22.4111 14.6577 22.4111 14.5601C22.4111 14.4624 22.4461 14.3826 22.5161 14.3208C22.5861 14.2573 22.6756 14.2256 22.7847 14.2256C22.8953 14.2256 22.9849 14.2573 23.0532 14.3208C23.1232 14.3826 23.1582 14.4624 23.1582 14.5601C23.1582 14.6577 23.1232 14.7383 23.0532 14.8018C22.9849 14.8636 22.8953 14.8945 22.7847 14.8945ZM23.8394 18V15.3291H24.4229V15.7563H24.4644C24.5295 15.6034 24.6287 15.4854 24.7622 15.4023C24.8973 15.3177 25.0625 15.2754 25.2578 15.2754C25.554 15.2754 25.7811 15.3617 25.939 15.5342C26.0985 15.7067 26.1782 15.9525 26.1782 16.2715V18H25.5728V16.4155C25.5728 16.007 25.3929 15.8027 25.0332 15.8027C24.8525 15.8027 24.7093 15.8605 24.6035 15.9761C24.4977 16.0916 24.4448 16.2479 24.4448 16.4448V18H23.8394ZM27.5552 17.2456C27.6707 17.3937 27.8335 17.4678 28.0435 17.4678C28.2534 17.4678 28.4186 17.3929 28.5391 17.2432C28.6595 17.0934 28.7197 16.8908 28.7197 16.6353C28.7197 16.3797 28.6595 16.1771 28.5391 16.0273C28.4186 15.876 28.2534 15.8003 28.0435 15.8003C27.8351 15.8003 27.6724 15.8752 27.5552 16.0249C27.4396 16.1746 27.3818 16.3781 27.3818 16.6353C27.3818 16.8924 27.4396 17.0959 27.5552 17.2456ZM28.0435 19.0156C27.7033 19.0156 27.4266 18.9465 27.2134 18.8081C27.0018 18.6698 26.8838 18.485 26.8594 18.2539H27.4673C27.4868 18.3467 27.5479 18.4199 27.6504 18.4736C27.7546 18.5273 27.8888 18.5542 28.0532 18.5542C28.2599 18.5542 28.4211 18.5078 28.5366 18.415C28.6522 18.3223 28.71 18.1921 28.71 18.0244V17.519H28.6685C28.592 17.6623 28.4829 17.7721 28.3413 17.8486C28.2013 17.9235 28.0386 17.9609 27.853 17.9609C27.5177 17.9609 27.2516 17.8413 27.0547 17.6021C26.8577 17.3612 26.7593 17.0389 26.7593 16.6353C26.7593 16.2251 26.8586 15.8979 27.0571 15.6538C27.2557 15.408 27.5243 15.2852 27.8628 15.2852C28.0451 15.2852 28.2103 15.3275 28.3584 15.4121C28.5065 15.4967 28.6172 15.6115 28.6904 15.7563H28.7319V15.3291H29.3154V18.0098C29.3154 18.319 29.2007 18.564 28.9712 18.7446C28.7417 18.9253 28.4325 19.0156 28.0435 19.0156Z" fill="#0B192C"/>
</svg>
