<svg width="16" height="21" viewBox="0 0 16 21" fill="none" xmlns="http://www.w3.org/2000/svg">
<path d="M0.8257 7.97266C-0.829502 10.8605 0.222741 15.2431 2.05312 17.9003C2.96678 19.2289 3.89179 20.4214 5.15875 20.4214C5.18263 20.4214 5.20658 20.4209 5.2311 20.42C5.82636 20.3961 6.25651 20.2118 6.67241 20.0337C7.13935 19.8337 7.62227 19.6268 8.37974 19.6268C9.10036 19.6268 9.56024 19.827 10.005 20.0204C10.4433 20.2111 10.8947 20.4083 11.5618 20.3958C12.989 20.369 13.8652 19.0822 14.6382 17.947C15.445 16.7617 15.8496 15.6109 15.9862 15.1711L15.9917 15.1536C16.0177 15.0755 15.981 14.9901 15.9064 14.9557C15.9044 14.9548 15.8968 14.9516 15.8947 14.9507C15.6434 14.8474 13.4389 13.8641 13.4157 11.1841C13.3942 9.00673 15.0695 7.85371 15.4055 7.64472L15.4211 7.63491C15.4575 7.61136 15.4829 7.57399 15.4915 7.53126C15.5001 7.4886 15.4911 7.4442 15.4667 7.40831C14.3104 5.70688 12.538 5.45046 11.8244 5.41961C11.7209 5.40922 11.614 5.40399 11.5067 5.40399C10.6686 5.40399 9.86573 5.72224 9.22073 5.97795C8.77549 6.15447 8.39091 6.30692 8.12567 6.30692C7.82762 6.30692 7.44086 6.1526 6.99299 5.97395C6.39407 5.73496 5.71524 5.46414 4.9966 5.46414C4.97947 5.46414 4.96258 5.46434 4.94596 5.46466C3.27503 5.48938 1.69615 6.45052 0.8257 7.97266Z" fill="black"/>
<path d="M11.8262 0.73633C10.8143 0.777765 9.6005 1.40401 8.875 2.2584C8.25843 2.97655 7.65611 4.17391 7.8148 5.38083C7.82475 5.45634 7.88586 5.51462 7.96141 5.52049C8.02971 5.52585 8.09943 5.52856 8.16888 5.52862C9.15828 5.52862 10.2256 4.97828 10.9545 4.09214C11.7217 3.15642 12.1096 1.95557 11.9923 0.879934C11.983 0.795643 11.9092 0.733038 11.8262 0.73633Z" fill="black"/>
</svg>
