<svg width="23" height="79" viewBox="0 0 23 79" fill="none" xmlns="http://www.w3.org/2000/svg">
<path d="M11.956 52.9228C17.568 52.9228 22.1337 48.3571 22.1337 42.7451V10.1777C22.1337 4.5657 17.568 0 11.956 0C6.34408 0 1.77838 4.5657 1.77838 10.1777V42.7451C1.7794 48.3561 6.34408 52.9228 11.956 52.9228ZM7.88497 10.1777C7.88497 7.93247 9.71085 6.10659 11.956 6.10659C14.2012 6.10659 16.0271 7.93247 16.0271 10.1777V42.7451C16.0271 44.9903 14.2012 46.8162 11.956 46.8162C9.71085 46.8162 7.88497 44.9903 7.88497 42.7451V10.1777Z" fill="#007AFF"/>
<path d="M11.5001 56.3608C5.25818 56.3608 0.180542 61.4384 0.180542 67.6804C0.180542 73.9223 5.25818 79 11.5001 79C17.7421 79 22.8197 73.9223 22.8197 67.6804C22.8197 61.4384 17.7421 56.3608 11.5001 56.3608ZM11.5001 72.8934C8.62597 72.8934 6.28714 70.5545 6.28714 67.6804C6.28714 64.8062 8.62597 62.4674 11.5001 62.4674C14.3743 62.4674 16.7131 64.8062 16.7131 67.6804C16.7131 70.5545 14.3733 72.8934 11.5001 72.8934Z" fill="#007AFF"/>
</svg>
