<svg width="18" height="11" viewBox="0 0 18 11" fill="none" xmlns="http://www.w3.org/2000/svg">
<path fill-rule="evenodd" clip-rule="evenodd" d="M0 0H18V11H0V0Z" fill="#3F51B5"/>
<path fill-rule="evenodd" clip-rule="evenodd" d="M0 1.65583L8.51261 6.65248L9.79261 4.64216L1.88565 0H0V1.65583Z" fill="white"/>
<path fill-rule="evenodd" clip-rule="evenodd" d="M18.0007 0H16.5241L8.61719 4.64062L9.8956 6.65248L18.0007 1.89523V0Z" fill="white"/>
<path fill-rule="evenodd" clip-rule="evenodd" d="M9.8956 4.03516L8.61719 6.04701L17.0563 11.0007H18.0007V8.79241L9.8956 4.03516Z" fill="white"/>
<path fill-rule="evenodd" clip-rule="evenodd" d="M0 9.03334V11.0007H1.35352L9.79261 6.04701L8.5142 4.03516L0 9.03334Z" fill="white"/>
<path fill-rule="evenodd" clip-rule="evenodd" d="M0 3.92969H18V7.07254H0V3.92969Z" fill="white"/>
<path fill-rule="evenodd" clip-rule="evenodd" d="M7.36328 0H10.636V11H7.36328V0Z" fill="white"/>
<path fill-rule="evenodd" clip-rule="evenodd" d="M6.22585 3.92927L0 0.275391V1.19615L4.65661 3.92927H6.22585Z" fill="#E53935"/>
<path fill-rule="evenodd" clip-rule="evenodd" d="M17.3074 0L10.6133 3.92857H12.1825L17.9993 0.515625V0H17.3074Z" fill="#E53935"/>
<path fill-rule="evenodd" clip-rule="evenodd" d="M12.7148 7.07031L17.9995 10.1717V9.25098L14.2841 7.07031H12.7148Z" fill="#E53935"/>
<path fill-rule="evenodd" clip-rule="evenodd" d="M5.69371 7.07031L0 10.4127V10.9989H0.568892L7.26296 7.07031H5.69371Z" fill="#E53935"/>
<path fill-rule="evenodd" clip-rule="evenodd" d="M0 4.71484H18V6.28627H0V4.71484Z" fill="#E53935"/>
<path fill-rule="evenodd" clip-rule="evenodd" d="M8.18164 0H9.818V11H8.18164V0Z" fill="#E53935"/>
</svg>
