<svg width="13" height="20" viewBox="0 0 13 20" fill="none" xmlns="http://www.w3.org/2000/svg">
<path d="M6.81906 18.148L6.81852 18.1488C6.744 18.2663 6.61427 18.3375 6.46875 18.3375C6.32656 18.3375 6.19268 18.2642 6.1195 18.1488L6.11957 18.1488L6.11746 18.1457C6.11745 18.1457 6.11734 18.1455 6.11696 18.145C6.11696 18.145 6.11695 18.145 6.11695 18.1449C5.3375 16.9432 4.04231 14.8698 2.94227 12.744C2.39214 11.6808 1.89172 10.6063 1.52905 9.62217C1.16563 8.63604 0.94375 7.74909 0.94375 7.05841C0.94375 4.08523 3.42004 1.6625 6.46875 1.6625C9.51744 1.6625 11.9937 4.08523 11.9937 7.05841C11.9937 7.74867 11.7719 8.63538 11.4085 9.62143C11.0458 10.6055 10.5454 11.6801 9.99518 12.7435C8.89487 14.8701 7.59917 16.9448 6.81906 18.148ZM6.46875 0.9C3.0037 0.9 0.18125 3.66051 0.18125 7.05841C0.18125 7.82196 0.416677 8.7704 0.788847 9.79563C1.16168 10.8227 1.67475 11.9348 2.23651 13.0281C3.35998 15.2147 4.68174 17.3333 5.47657 18.5588C5.69241 18.8979 6.06352 19.1 6.46875 19.1C6.8746 19.1 7.24667 18.8975 7.46068 18.5598C8.25525 17.3344 9.57706 15.2153 10.7006 13.0283C11.2625 11.9347 11.7756 10.8224 12.1485 9.79526C12.5208 8.76998 12.7563 7.82162 12.7563 7.05841C12.7563 3.66051 9.93377 0.9 6.46875 0.9Z" fill="#1D1D1D" stroke="#0B192C" stroke-width="0.2"/>
<path d="M6.46875 3.43125C4.7076 3.43125 3.275 4.86385 3.275 6.625C3.275 8.38612 4.7076 9.81875 6.46875 9.81875C8.22987 9.81875 9.6625 8.38612 9.6625 6.625C9.6625 4.86385 8.22987 3.43125 6.46875 3.43125ZM6.46875 9.05625C5.12816 9.05625 4.0375 7.96559 4.0375 6.625C4.0375 5.28441 5.12816 4.19375 6.46875 4.19375C7.80931 4.19375 8.9 5.28441 8.9 6.625C8.9 7.96559 7.80931 9.05625 6.46875 9.05625Z" fill="#1D1D1D" stroke="#0B192C" stroke-width="0.2"/>
</svg>
