<svg width="19" height="20" viewBox="0 0 19 20" fill="none" xmlns="http://www.w3.org/2000/svg">
<g id="icons8-google">
<path id="Path" fill-rule="evenodd" clip-rule="evenodd" d="M18.8145 8.09743H18.05V8.05825H9.5V11.8789H14.8697C14.0849 14.1026 11.9808 15.6995 9.5 15.6995C6.35127 15.6995 3.8 13.1344 3.8 9.96857C3.8 6.80274 6.35127 4.23762 9.5 4.23762C10.9528 4.23762 12.2758 4.78796 13.2814 5.68901L15.9682 2.98771C14.2723 1.39827 12.003 0.416992 9.5 0.416992C4.25273 0.416992 0 4.69281 0 9.96857C0 15.2443 4.25273 19.5201 9.5 19.5201C14.7473 19.5201 19 15.2443 19 9.96857C19 9.32869 18.9351 8.70373 18.8145 8.09743Z" fill="#FFC107"/>
<path id="Path_2" fill-rule="evenodd" clip-rule="evenodd" d="M1.0957 5.52298L4.21846 7.82506C5.0627 5.72259 7.10742 4.23762 9.50098 4.23762C10.9538 4.23762 12.2768 4.78796 13.2824 5.68901L15.9691 2.98771C14.2732 1.39827 12.004 0.416992 9.50098 0.416992C5.85127 0.416992 2.6877 2.48774 1.0957 5.52298Z" fill="#FF3D00"/>
<path id="Path_3" fill-rule="evenodd" clip-rule="evenodd" d="M9.5002 19.5199C11.9531 19.5199 14.1834 18.576 15.87 17.0406L12.9291 14.5389C11.9754 15.2646 10.7897 15.6993 9.5002 15.6993C7.02871 15.6993 4.93203 14.1155 4.1416 11.9048L1.04297 14.3039C2.61455 17.3969 5.80781 19.5199 9.5002 19.5199Z" fill="#4CAF50"/>
<path id="Path_4" fill-rule="evenodd" clip-rule="evenodd" d="M18.8145 8.09704H18.05V8.05786H9.5V11.8785H14.8697C14.4931 12.9474 13.8084 13.8672 12.9271 14.5388C12.9289 14.5388 12.9289 14.5388 12.9289 14.5388L15.8698 17.0404C15.662 17.2289 19 14.744 19 9.96818C19 9.3283 18.9351 8.70334 18.8145 8.09704Z" fill="#1976D2"/>
</g>
</svg>
