<svg width="82" height="82" viewBox="0 0 82 82" fill="none" xmlns="http://www.w3.org/2000/svg">
<path d="M21.7666 73.9979C21.2117 70.7849 18.4032 68.3318 15.0331 68.3318C12.3422 68.3318 10.0106 69.8953 8.89675 72.1611C8.6767 72.004 8.44159 71.8645 8.19976 71.7388V49.1986C8.19976 48.4443 7.58749 47.832 6.83316 47.832C6.07883 47.832 5.46656 48.4443 5.46656 49.1986V71.065C2.45181 71.065 0 73.5168 0 76.5318C0 79.5467 2.45181 81.9983 5.46656 81.9983H20.4998C22.7602 81.9983 24.5998 80.1588 24.5998 77.8984C24.5998 76.0793 23.4093 74.5337 21.7666 73.9979ZM20.4998 79.265H5.46656C3.95918 79.265 2.7332 78.0391 2.7332 76.5316C2.7332 75.0241 3.95918 73.7984 5.46656 73.7984C6.74171 73.7984 7.87465 74.5391 8.28592 75.6434C8.51687 76.2625 9.15652 76.6274 9.8098 76.5098C10.4603 76.3923 10.9331 75.8264 10.9331 75.165C10.9331 72.9046 12.7727 71.065 15.0331 71.065C17.2935 71.065 19.133 72.9046 19.133 75.165C19.133 75.9193 19.7453 76.5316 20.4996 76.5316C21.2527 76.5316 21.8662 77.1451 21.8662 77.8982C21.8662 78.6512 21.2528 79.265 20.4998 79.265Z" fill="white" fill-opacity="0.8"/>
<path d="M80.6326 10.9333H54.6661C53.9118 10.9333 53.2995 11.5456 53.2995 12.2999C53.2995 13.0542 53.9118 13.6665 54.6661 13.6665H79.2658V43.1671L41.9658 5.86711C41.6979 5.59917 41.3467 5.46672 40.9954 5.46672C40.6442 5.46672 40.293 5.59933 40.0251 5.86711L2.73336 43.1657V13.6665H17.7666C18.5209 13.6665 19.1332 13.0542 19.1332 12.2999V6.83332C19.1332 6.07899 18.5209 5.46672 17.7666 5.46672H16.3998V2.73336H24.5998V5.46672H23.2332C22.4788 5.46672 21.8666 6.07899 21.8666 6.83332V12.2999C21.8666 13.0542 22.4788 13.6665 23.2332 13.6665H27.3331C28.0875 13.6665 28.6997 13.0542 28.6997 12.2999C28.6997 11.5456 28.0875 10.9333 27.3331 10.9333H24.5998V8.19992H25.9664C26.7207 8.19992 27.333 7.58765 27.333 6.83332V1.3666C27.333 0.612271 26.7207 0 25.9664 0H15.0332C14.2789 0 13.6666 0.612271 13.6666 1.3666V6.83316C13.6666 7.58749 14.2789 8.19976 15.0332 8.19976H16.3998V10.9331H1.3666C1.00449 10.9331 0.655994 11.0766 0.400387 11.3335C0.143499 11.5893 0 11.9378 0 12.2999L0.00544526 46.4662C0.00544526 47.0197 0.338887 47.5171 0.850101 47.729C1.01954 47.7987 1.19588 47.8329 1.37221 47.8329C1.72887 47.8329 2.07881 47.6936 2.33842 47.4325L40.9954 8.76158L79.6662 47.4324C79.9273 47.6934 80.2771 47.8328 80.6324 47.8328C80.8088 47.8328 80.9864 47.7986 81.1558 47.7288C81.6656 47.5169 81.999 47.0182 81.999 46.466V12.2999C81.9992 11.5456 81.3869 10.9333 80.6326 10.9333Z" fill="white" fill-opacity="0.8"/>
<path d="M76.5338 71.065V49.1986C76.5338 48.4443 75.9215 47.832 75.1672 47.832C74.4128 47.832 73.8005 48.4443 73.8005 49.1986V71.7388C73.5587 71.8645 73.3236 72.0039 73.1036 72.1611C71.9897 69.8953 69.6581 68.3318 66.9672 68.3318C63.5971 68.3318 60.7886 70.7849 60.2337 73.9979C58.591 74.5337 57.4005 76.0793 57.4005 77.8984C57.4005 78.3807 57.4989 78.8359 57.6534 79.265H34.1674C33.4131 79.265 32.8008 79.8772 32.8008 80.6316C32.8008 81.3859 33.4131 81.9982 34.1674 81.9982H61.5005H66.9671H76.5336C79.5485 81.9983 82.0003 79.5465 82.0003 76.5318C82.0003 73.517 79.5485 71.065 76.5338 71.065ZM76.5338 79.265H66.9672H61.5005C60.7475 79.265 60.1339 78.6514 60.1339 77.8984C60.1339 77.1453 60.7475 76.5318 61.5005 76.5318C62.2548 76.5318 62.8671 75.9195 62.8671 75.1652C62.8671 72.9047 64.7066 71.0652 66.9671 71.0652C69.2275 71.0652 71.067 72.9047 71.067 75.1652C71.067 75.8266 71.54 76.3924 72.1904 76.51C72.8395 76.6288 73.4833 76.2625 73.7142 75.6435C74.1255 74.5393 75.2586 73.7986 76.5336 73.7986C78.041 73.7986 79.267 75.0244 79.267 76.5319C79.267 78.0395 78.0411 79.265 76.5338 79.265Z" fill="white" fill-opacity="0.8"/>
<path d="M46.4663 27.3338C46.4663 24.3188 44.0145 21.8672 40.9998 21.8672C37.9849 21.8672 35.5332 24.319 35.5332 27.3338C35.5332 30.3485 37.9849 32.8003 40.9998 32.8003C44.0147 32.8003 46.4663 30.3485 46.4663 27.3338ZM38.2664 27.3338C38.2664 25.8264 39.4922 24.6004 40.9998 24.6004C42.5071 24.6004 43.7331 25.8262 43.7331 27.3338C43.7331 28.8411 42.5073 30.0671 40.9998 30.0671C39.4924 30.0669 38.2664 28.8411 38.2664 27.3338Z" fill="white" fill-opacity="0.8"/>
<path d="M66.9667 46.4668H56.0334C55.2791 46.4668 54.6668 47.0791 54.6668 47.8334V62.8666H53.3002C52.5459 62.8666 51.9336 63.4789 51.9336 64.2332C51.9336 64.9876 52.5459 65.5998 53.3002 65.5998H69.7C70.4544 65.5998 71.0666 64.9876 71.0666 64.2332C71.0666 63.4789 70.4544 62.8666 69.7 62.8666H68.3334V47.8334C68.3334 47.0791 67.7212 46.4668 66.9667 46.4668ZM65.6001 62.8666H57.4002V57.4001H65.6001V62.8666ZM65.6001 54.6667H57.4002V49.2002H65.6001V54.6667Z" fill="white" fill-opacity="0.8"/>
<path d="M54.6668 75.1664C54.6668 74.412 54.0545 73.7998 53.3002 73.7998H49.2002V47.8334C49.2002 47.0791 48.588 46.4668 47.8336 46.4668H34.1671C33.4128 46.4668 32.8005 47.0791 32.8005 47.8334V73.7998H28.7006C27.9463 73.7998 27.334 74.412 27.334 75.1664V80.6329C27.334 81.3872 27.9463 81.9995 28.7006 81.9995C29.4549 81.9995 30.0672 81.3872 30.0672 80.6329V76.533H53.3002C54.0545 76.5331 54.6668 75.9208 54.6668 75.1664ZM46.4669 60.1333H45.1003C44.3459 60.1333 43.7337 60.7455 43.7337 61.4999C43.7337 62.2542 44.3459 62.8665 45.1003 62.8665H46.4669V73.7998H35.5336V49.2H46.4669V60.1333Z" fill="white" fill-opacity="0.8"/>
<path d="M25.9667 46.4668H15.0336C14.2792 46.4668 13.667 47.0791 13.667 47.8334V62.8666H12.3002C11.5459 62.8666 10.9336 63.4789 10.9336 64.2332C10.9336 64.9876 11.5459 65.6 12.3002 65.6H28.7C29.4544 65.6 30.0666 64.9877 30.0666 64.2334C30.0666 63.4791 29.4544 62.8668 28.7 62.8668H27.3334V47.8336C27.3334 47.0791 26.7212 46.4668 25.9667 46.4668ZM24.6001 62.8666H16.4002V57.4001H24.6001V62.8666ZM24.6001 54.6667H16.4002V49.2002H24.6001V54.6667Z" fill="white" fill-opacity="0.8"/>
</svg>
