<svg width="15" height="15" viewBox="0 0 15 15" fill="none" xmlns="http://www.w3.org/2000/svg">
<g clip-path="url(#clip0_238_5489)">
<path d="M14.9994 11.104C14.9994 9.1485 13.5322 7.51334 11.6462 7.24636V5.63463L12.1891 6.09017C12.3168 6.18597 12.4765 6.24983 12.6043 6.24983C12.7959 6.24983 12.9556 6.18597 13.0514 6.0582C13.2749 5.77078 13.243 5.38755 12.9875 5.16401L7.01554 0.150108C6.79198 -0.0414912 6.44071 -0.0414912 6.21715 0.150108L0.21325 5.16401C-0.0422456 5.38758 -0.0741789 5.80274 0.149383 6.0582C0.372946 6.3137 0.788108 6.34563 1.04357 6.12207L1.6184 5.6392V11.5192C1.6184 11.8705 1.90583 12.1579 2.25713 12.1579H7.35368C7.81806 13.7914 9.33375 15.0002 11.1352 15.0002C13.2749 15.0002 15.0314 13.2437 14.9994 11.104ZM2.89034 4.57082L6.63231 1.42756L10.3747 4.56771C10.3709 4.59566 10.3688 4.62411 10.3688 4.65305V7.27844C8.63693 7.61356 7.30083 9.10856 7.21194 10.9124H2.89585V4.65305C2.89585 4.62516 2.89383 4.59777 2.89034 4.57082ZM11.1353 13.7547C9.66621 13.7547 8.48459 12.5731 8.48459 11.104C8.48459 9.635 9.66621 8.45338 11.1353 8.45338C12.5724 8.45338 13.7859 9.635 13.7859 11.104C13.7859 12.5731 12.6043 13.7547 11.1353 13.7547Z" fill="#010101"/>
<path d="M12.54 10.4301H11.7736V9.66369C11.7736 9.31239 11.4861 9.02496 11.1348 9.02496C10.7836 9.02496 10.4961 9.31239 10.4961 9.66369V10.4301H9.72967C9.37837 10.4301 9.09094 10.7176 9.09094 11.0689C9.09094 11.4202 9.37837 11.7076 9.72967 11.7076H10.4961V12.4741C10.4961 12.8254 10.7836 13.1128 11.1348 13.1128C11.4542 13.1128 11.7416 12.8573 11.7736 12.4741V11.7076H12.54C12.8594 11.7076 13.1788 11.4202 13.1788 11.0689C13.1788 10.7176 12.8913 10.4301 12.54 10.4301Z" fill="#010101"/>
</g>
<defs>
<clipPath id="clip0_238_5489">
<rect width="15" height="15" fill="white"/>
</clipPath>
</defs>
</svg>
