<svg width="113" height="21" viewBox="0 0 113 21" fill="none" xmlns="http://www.w3.org/2000/svg">
<path d="M15.3269 16H12.9831V6.08789H12.8464L8.9499 15.4531H7.15302L3.25654 6.08789H3.11982V16H0.77607V1.9082H3.72529L7.96357 12.1719H8.13935L12.3776 1.9082H15.3269V16ZM20.3694 19.877C19.8681 19.877 19.5491 19.8639 19.4124 19.8379V17.8555C19.536 17.8815 19.7574 17.8945 20.0764 17.8945C20.5907 17.8945 20.9976 17.7871 21.2971 17.5723C21.6031 17.3574 21.8342 17.0059 21.9905 16.5176L22.1174 16.0488L18.2991 5.31641H20.9553L23.4553 13.6562H23.6213L26.1116 5.31641H28.6702L24.8127 16.3418C24.3635 17.6634 23.8101 18.5814 23.1526 19.0957C22.5015 19.6165 21.5738 19.877 20.3694 19.877Z" fill="#1785ED"/>
<path d="M37.6873 16H31.6619V1.9082H37.5506C38.8852 1.9082 39.9334 2.22396 40.6951 2.85547C41.4568 3.48047 41.8377 4.33659 41.8377 5.42383C41.8377 6.16602 41.5968 6.82682 41.115 7.40625C40.6333 7.98568 40.0376 8.33073 39.3279 8.44141V8.61719C40.2784 8.70833 41.0499 9.06641 41.6424 9.69141C42.2348 10.3099 42.5311 11.0781 42.5311 11.9961C42.5311 13.2331 42.0981 14.2096 41.2322 14.9258C40.3729 15.6419 39.1912 16 37.6873 16ZM34.1814 3.91016V7.83594H36.6131C37.505 7.83594 38.1821 7.66992 38.6443 7.33789C39.1131 6.99935 39.3475 6.51107 39.3475 5.87305C39.3475 5.25456 39.1359 4.77279 38.7127 4.42773C38.2895 4.08268 37.6971 3.91016 36.9354 3.91016H34.1814ZM34.1814 13.998H37.1111C38.0421 13.998 38.7485 13.8125 39.2303 13.4414C39.712 13.0638 39.9529 12.5169 39.9529 11.8008C39.9529 11.0977 39.7023 10.5638 39.201 10.1992C38.7062 9.83464 37.977 9.65234 37.0135 9.65234H34.1814V13.998ZM50.3168 16.2148C48.7152 16.2148 47.4587 15.7233 46.5472 14.7402C45.6358 13.7507 45.1801 12.39 45.1801 10.6582C45.1801 8.93945 45.639 7.58529 46.557 6.5957C47.475 5.59961 48.7282 5.10156 50.3168 5.10156C51.9118 5.10156 53.1651 5.59635 54.0765 6.58594C54.9945 7.57552 55.4535 8.93294 55.4535 10.6582C55.4535 12.39 54.9945 13.7507 54.0765 14.7402C53.1651 15.7233 51.9118 16.2148 50.3168 16.2148ZM48.3539 13.2656C48.8161 13.8776 49.4704 14.1836 50.3168 14.1836C51.1631 14.1836 51.8142 13.8776 52.2699 13.2656C52.7321 12.6471 52.9633 11.778 52.9633 10.6582C52.9633 9.54492 52.7321 8.67904 52.2699 8.06055C51.8077 7.44206 51.1566 7.13281 50.3168 7.13281C49.4704 7.13281 48.8161 7.44206 48.3539 8.06055C47.8916 8.67904 47.6605 9.54492 47.6605 10.6582C47.6605 11.778 47.8916 12.6471 48.3539 13.2656ZM63.1904 16.2148C61.5888 16.2148 60.3323 15.7233 59.4209 14.7402C58.5094 13.7507 58.0537 12.39 58.0537 10.6582C58.0537 8.93945 58.5127 7.58529 59.4306 6.5957C60.3486 5.59961 61.6019 5.10156 63.1904 5.10156C64.7855 5.10156 66.0387 5.59635 66.9502 6.58594C67.8681 7.57552 68.3271 8.93294 68.3271 10.6582C68.3271 12.39 67.8681 13.7507 66.9502 14.7402C66.0387 15.7233 64.7855 16.2148 63.1904 16.2148ZM61.2275 13.2656C61.6897 13.8776 62.344 14.1836 63.1904 14.1836C64.0368 14.1836 64.6878 13.8776 65.1435 13.2656C65.6058 12.6471 65.8369 11.778 65.8369 10.6582C65.8369 9.54492 65.6058 8.67904 65.1435 8.06055C64.6813 7.44206 64.0302 7.13281 63.1904 7.13281C62.344 7.13281 61.6897 7.44206 61.2275 8.06055C60.7653 8.67904 60.5341 9.54492 60.5341 10.6582C60.5341 11.778 60.7653 12.6471 61.2275 13.2656ZM74.1402 9.67188L78.0855 5.31641H80.898L76.6402 9.89648L81.191 16H78.2613L74.8335 11.4199L73.9742 12.2793V16H71.5523V1.18555H73.9742V9.67188H74.1402ZM83.7716 16V5.31641H86.1837V16H83.7716ZM84.9728 3.57812C84.5366 3.57812 84.1785 3.45443 83.8986 3.20703C83.6186 2.95312 83.4787 2.63086 83.4787 2.24023C83.4787 1.84961 83.6186 1.5306 83.8986 1.2832C84.1785 1.0293 84.5366 0.902344 84.9728 0.902344C85.4155 0.902344 85.7736 1.0293 86.047 1.2832C86.327 1.5306 86.4669 1.84961 86.4669 2.24023C86.4669 2.63086 86.327 2.95312 86.047 3.20703C85.7736 3.45443 85.4155 3.57812 84.9728 3.57812ZM89.8777 16V5.31641H92.2116V7.02539H92.3777C92.6381 6.41341 93.0352 5.94141 93.5691 5.60938C94.1094 5.27083 94.7702 5.10156 95.5515 5.10156C96.7364 5.10156 97.6446 5.44661 98.2761 6.13672C98.9141 6.82682 99.2331 7.8099 99.2331 9.08594V16H96.8112V9.66211C96.8112 8.02799 96.0918 7.21094 94.653 7.21094C93.9304 7.21094 93.3575 7.44206 92.9343 7.9043C92.5111 8.36654 92.2995 8.99154 92.2995 9.7793V16H89.8777ZM105.427 12.9824C105.889 13.5749 106.54 13.8711 107.38 13.8711C108.22 13.8711 108.881 13.5716 109.363 12.9727C109.844 12.3737 110.085 11.5632 110.085 10.541C110.085 9.51888 109.844 8.70833 109.363 8.10938C108.881 7.50391 108.22 7.20117 107.38 7.20117C106.547 7.20117 105.896 7.50065 105.427 8.09961C104.965 8.69857 104.734 9.51237 104.734 10.541C104.734 11.5697 104.965 12.3835 105.427 12.9824ZM107.38 20.0625C106.02 20.0625 104.913 19.7858 104.06 19.2324C103.214 18.679 102.742 17.9401 102.644 17.0156H105.075C105.154 17.3867 105.398 17.6797 105.808 17.8945C106.225 18.1094 106.762 18.2168 107.419 18.2168C108.246 18.2168 108.891 18.0312 109.353 17.6602C109.815 17.2891 110.046 16.7682 110.046 16.0977V14.0762H109.88C109.574 14.6491 109.138 15.0885 108.572 15.3945C108.012 15.694 107.361 15.8438 106.618 15.8438C105.277 15.8438 104.213 15.3652 103.425 14.4082C102.637 13.4447 102.243 12.1556 102.243 10.541C102.243 8.90039 102.641 7.5918 103.435 6.61523C104.229 5.63216 105.303 5.14062 106.658 5.14062C107.387 5.14062 108.047 5.3099 108.64 5.64844C109.232 5.98698 109.675 6.44596 109.968 7.02539H110.134V5.31641H112.468V16.0391C112.468 17.276 112.009 18.2559 111.091 18.9785C110.173 19.7012 108.936 20.0625 107.38 20.0625Z" fill="white"/>
</svg>
