<svg width="17" height="17" viewBox="0 0 17 17" fill="none" xmlns="http://www.w3.org/2000/svg">
<path d="M15.9986 1.28452C15.9955 1.25951 15.9924 1.23448 15.983 1.20948C15.9799 1.2001 15.9767 1.18759 15.9736 1.17821C15.958 1.14383 15.9361 1.11255 15.9111 1.08441C15.883 1.05941 15.8517 1.03752 15.8173 1.02189C15.8079 1.01876 15.7954 1.01252 15.786 1.01252C15.761 1.00627 15.736 1 15.711 1C15.6985 1 15.6891 1 15.6766 1C15.6485 1 15.6172 1.00624 15.5891 1.01562C15.5828 1.01876 15.5765 1.01876 15.5703 1.02187H15.5672L1.18863 7.26854C1.02918 7.33733 0.957283 7.52178 1.02605 7.68123C1.05418 7.74688 1.10422 7.80002 1.16674 7.8313L6.39417 10.5982L9.16421 15.8256C9.21735 15.9288 9.32366 15.9913 9.43934 15.9945H9.45186C9.57065 15.9913 9.67696 15.9163 9.727 15.8069L15.9767 1.43145V1.42831C15.9799 1.42207 15.9799 1.4158 15.983 1.40955C15.9923 1.38142 15.9986 1.35328 15.9986 1.322C15.9986 1.30952 16.0017 1.297 15.9986 1.28452ZM2.03588 7.57805L14.3134 2.24121L6.57234 9.97917L2.03588 7.57805ZM9.41742 14.9596L7.01631 10.4231L14.7543 2.68204L9.41742 14.9596Z" fill="#0B192C" stroke="#0B192C" stroke-width="0.4"/>
</svg>
