<svg width="11" height="15" viewBox="0 0 11 15" fill="none" xmlns="http://www.w3.org/2000/svg">
<path d="M8.3125 0.9375C8.56114 0.9375 8.7996 1.03627 8.97541 1.21209C9.15123 1.3879 9.25 1.62636 9.25 1.875V13.125C9.25 13.3736 9.15123 13.6121 8.97541 13.7879C8.7996 13.9637 8.56114 14.0625 8.3125 14.0625H2.6875C2.43886 14.0625 2.2004 13.9637 2.02459 13.7879C1.84877 13.6121 1.75 13.3736 1.75 13.125V1.875C1.75 1.62636 1.84877 1.3879 2.02459 1.21209C2.2004 1.03627 2.43886 0.9375 2.6875 0.9375H8.3125ZM2.6875 0C2.19022 0 1.71331 0.197544 1.36167 0.549175C1.01004 0.900806 0.8125 1.37772 0.8125 1.875V13.125C0.8125 13.6223 1.01004 14.0992 1.36167 14.4508C1.71331 14.8025 2.19022 15 2.6875 15H8.3125C8.80978 15 9.28669 14.8025 9.63832 14.4508C9.98996 14.0992 10.1875 13.6223 10.1875 13.125V1.875C10.1875 1.37772 9.98996 0.900806 9.63832 0.549175C9.28669 0.197544 8.80978 0 8.3125 0L2.6875 0Z" fill="black"/>
</svg>
