<svg width="15" height="15" viewBox="0 0 15 15" fill="none" xmlns="http://www.w3.org/2000/svg">
<path d="M7.5 0C6.01664 0 4.56659 0.439867 3.33323 1.26398C2.09986 2.08809 1.13856 3.25943 0.570907 4.62987C0.00324962 6.00032 -0.145275 7.50832 0.144114 8.96317C0.433503 10.418 1.14781 11.7544 2.1967 12.8033C3.2456 13.8522 4.58197 14.5665 6.03682 14.8559C7.49168 15.1453 8.99968 14.9967 10.3701 14.4291C11.7406 13.8614 12.9119 12.9001 13.736 11.6668C14.5601 10.4334 15 8.98336 15 7.5C15 5.51087 14.2098 3.60322 12.8033 2.1967C11.3968 0.790176 9.48913 0 7.5 0ZM7.5 13.9286C6.22855 13.9286 4.98565 13.5515 3.92848 12.8452C2.87131 12.1388 2.04734 11.1348 1.56078 9.9601C1.07421 8.78544 0.946907 7.49287 1.19495 6.24585C1.443 4.99883 2.05526 3.85336 2.95432 2.95431C3.85337 2.05526 4.99883 1.443 6.24585 1.19495C7.49287 0.946904 8.78544 1.07421 9.96011 1.56077C11.1348 2.04734 12.1388 2.8713 12.8452 3.92848C13.5515 4.98565 13.9286 6.22855 13.9286 7.5C13.9286 9.20496 13.2513 10.8401 12.0457 12.0457C10.8401 13.2513 9.20496 13.9286 7.5 13.9286Z" fill="black"/>
<path d="M7.49791 12.3216C7.94171 12.3216 8.30148 11.9618 8.30148 11.518C8.30148 11.0742 7.94171 10.7144 7.49791 10.7144C7.05411 10.7144 6.69434 11.0742 6.69434 11.518C6.69434 11.9618 7.05411 12.3216 7.49791 12.3216Z" fill="black"/>
<path d="M8.03363 3.21442H7.23006C6.91328 3.21372 6.59948 3.27559 6.30668 3.39649C6.01388 3.51739 5.74784 3.69493 5.52385 3.91893C5.29985 4.14293 5.12231 4.40896 5.00141 4.70176C4.88051 4.99456 4.81864 5.30836 4.81934 5.62514V5.89299H5.89077V5.62514C5.89077 5.26994 6.03187 4.92928 6.28304 4.67812C6.5342 4.42695 6.87485 4.28585 7.23006 4.28585H8.03363C8.38883 4.28585 8.72948 4.42695 8.98064 4.67812C9.23181 4.92928 9.37291 5.26994 9.37291 5.62514C9.37291 5.98034 9.23181 6.32099 8.98064 6.57215C8.72948 6.82332 8.38883 6.96442 8.03363 6.96442H6.9622V9.37514H8.03363V8.03585C8.67299 8.03585 9.28616 7.78186 9.73826 7.32977C10.1904 6.87767 10.4443 6.2645 10.4443 5.62514C10.4443 4.98578 10.1904 4.3726 9.73826 3.9205C9.28616 3.46841 8.67299 3.21442 8.03363 3.21442Z" fill="black"/>
</svg>
