<svg width="15" height="15" viewBox="0 0 15 15" fill="none" xmlns="http://www.w3.org/2000/svg">
<g clip-path="url(#clip0_238_5487)">
<path d="M14.7414 4.30746L11.2286 0.789074C11.0608 0.620768 10.837 0.527954 10.5989 0.527954C10.4111 0.527954 10.2285 0.587541 10.0773 0.696968L9.97988 0.752515L5.45999 1.37418C5.35647 1.37802 5.25618 1.39443 5.16034 1.4216L5.00173 1.27248C4.99521 1.26637 4.98855 1.26036 4.98178 1.25456C4.82049 1.11579 4.61452 1.03939 4.40172 1.03939C4.16368 1.03939 3.93993 1.1322 3.77182 1.30076L0.259499 4.81869C-0.0545424 5.13344 -0.087113 5.63649 0.183501 5.98896C0.192843 6.00103 0.202589 6.01284 0.212738 6.0242L1.71987 7.70672C1.7687 7.91022 1.83566 8.11993 1.91934 8.33485C1.55379 8.77513 1.57682 9.43139 1.98928 9.844C1.98998 9.84471 1.99069 9.84537 1.9914 9.84608L1.99629 9.85092C2.20328 10.0572 2.47667 10.172 2.76799 10.1771C2.76259 10.2222 2.75885 10.2676 2.75885 10.3137C2.75885 10.6128 2.87509 10.894 3.08622 11.1058L3.09072 11.1104C3.09142 11.1111 3.09208 11.1118 3.09279 11.1125C3.30472 11.3244 3.5865 11.4412 3.88625 11.4412C3.92099 11.4412 3.95533 11.4393 3.98951 11.4362C3.99285 11.44 3.99643 11.4438 3.99982 11.4476C3.99921 11.4628 3.99759 11.4778 3.99759 11.4931C3.99759 11.7922 4.11389 12.0735 4.32507 12.2853L4.32971 12.29C4.33037 12.2907 4.33098 12.2913 4.33163 12.292C4.54352 12.5038 4.82529 12.6205 5.12504 12.6205C5.1258 12.6205 5.12651 12.6204 5.12726 12.6204L5.23422 12.7274C5.24664 13.0081 5.36051 13.2704 5.56048 13.4704C5.56174 13.4716 5.56305 13.4729 5.56432 13.4741L5.5682 13.478C5.76777 13.6764 6.02914 13.7894 6.30864 13.8018L6.6043 14.0975C6.84583 14.3391 7.1677 14.4721 7.51057 14.4721C7.90516 14.4721 8.27187 14.2947 8.51668 13.9853C8.64979 13.8172 8.73356 13.6242 8.76926 13.4243L8.95494 13.61C9.2002 13.8552 9.53899 13.996 9.88439 13.996C10.1696 13.996 10.4485 13.8995 10.6699 13.7243C10.9157 13.5297 11.0806 13.2525 11.136 12.9474C11.3731 13.1502 11.6796 13.2649 11.9915 13.2649C12.2766 13.2649 12.5556 13.1684 12.777 12.9933C13.0637 12.7663 13.2404 12.4268 13.2615 12.0619C13.2812 11.7228 13.1658 11.3906 12.9432 11.1385C13.1491 11.1022 13.3443 11.0157 13.508 10.8862C13.7948 10.6592 13.9714 10.3197 13.9926 9.95479C14.0138 9.58925 13.878 9.23168 13.6202 8.97379L13.1438 8.49745C13.1612 8.48018 13.1778 8.4621 13.1931 8.44261C14.0851 7.30602 14.5654 6.46045 14.7425 5.71234C14.7564 5.68789 14.7687 5.66244 14.7791 5.63619L14.8774 5.38835C15.0806 5.04416 15.0296 4.5963 14.7414 4.30746ZM2.78814 9.57218C2.65609 9.57218 2.52409 9.52178 2.42325 9.42104L2.41779 9.41564C2.21636 9.21415 2.21636 8.88739 2.41779 8.68596L2.82147 8.28228C2.92221 8.18149 3.05421 8.13109 3.18631 8.13109C3.31841 8.13109 3.45046 8.18149 3.5513 8.28228L3.5566 8.28768C3.75819 8.48917 3.75819 8.81593 3.5566 9.01742L3.15303 9.42104C3.05224 9.52173 2.92019 9.57218 2.78814 9.57218ZM4.25119 10.684C4.1504 10.7848 4.01835 10.8352 3.88625 10.8352C3.7542 10.8352 3.62215 10.7848 3.52131 10.684L3.51595 10.6786C3.31442 10.4771 3.31442 10.1504 3.51595 9.94889L4.47095 8.99389C4.5718 8.89309 4.70385 8.8427 4.83595 8.8427C4.96805 8.8427 5.1001 8.89309 5.20089 8.99389L5.20629 8.99924C5.40777 9.20077 5.40777 9.52754 5.20629 9.72897L4.25119 10.684ZM5.48988 11.8634C5.38919 11.9642 5.25714 12.0145 5.12504 12.0145C4.99294 12.0145 4.86089 11.9642 4.76015 11.8634L4.7547 11.858C4.55316 11.6565 4.55316 11.3297 4.7547 11.1282L5.37273 10.5101C5.47352 10.4093 5.60552 10.359 5.73762 10.359C5.86967 10.359 6.00172 10.4093 6.10256 10.5101L6.10802 10.5155C6.30945 10.717 6.30945 11.0438 6.10802 11.2453L5.48988 11.8634ZM6.35924 13.1983C6.22719 13.1983 6.09519 13.1479 5.9944 13.0471L5.98895 13.0418C5.78736 12.8402 5.78736 12.5134 5.98895 12.3119L6.27006 12.0308C6.37085 11.9301 6.5029 11.8797 6.635 11.8797C6.76705 11.8797 6.89915 11.9301 6.99995 12.0308L7.00535 12.0363C7.20678 12.2378 7.20678 12.5645 7.00535 12.766L6.72418 13.0471C6.62334 13.1479 6.49129 13.1983 6.35924 13.1983ZM8.0416 13.6093C7.90607 13.7805 7.70837 13.8661 7.51062 13.8661C7.33742 13.8661 7.16421 13.8004 7.03282 13.6691L6.98061 13.6168C7.04181 13.5759 7.09943 13.5288 7.1526 13.4756L7.43367 13.1946C7.63161 12.9966 7.73902 12.7423 7.75781 12.4828L7.97393 12.6989C8.21884 12.9437 8.25652 13.3377 8.0416 13.6093ZM13.1917 9.40221C13.4731 9.68357 13.4532 10.1567 13.132 10.411C13.0116 10.5062 12.8674 10.5518 12.7226 10.5518C12.5406 10.5518 12.3579 10.4797 12.2216 10.3433L9.77158 7.8933C9.70795 7.82968 9.62463 7.79786 9.54126 7.79786C9.45794 7.79786 9.37452 7.82968 9.31094 7.8933C9.18213 8.02207 9.18213 8.23088 9.31094 8.35959L12.4606 11.5093C12.742 11.7907 12.7221 12.2638 12.4009 12.5181C12.2805 12.6133 12.1363 12.6589 11.9915 12.6589C11.8095 12.6589 11.6268 12.5868 11.4905 12.4504L8.35559 9.3155C8.29116 9.25107 8.20667 9.2188 8.12214 9.2188C8.03766 9.2188 7.95318 9.25107 7.88869 9.3155C7.76164 9.44255 7.76164 9.64853 7.88869 9.77553L10.3535 12.2403C10.6349 12.5217 10.615 12.9948 10.2938 13.2491C10.1734 13.3443 10.0292 13.3899 9.88439 13.3899C9.7024 13.3899 9.5198 13.3178 9.38341 13.1814L6.83634 10.6343C6.79149 10.4336 6.69227 10.2428 6.53648 10.0869L6.53098 10.0814C6.35515 9.90571 6.13109 9.79669 5.88901 9.76422C5.93713 9.63803 5.96334 9.5032 5.96334 9.36408C5.96334 9.06443 5.84664 8.78261 5.63476 8.57072C5.63415 8.57012 5.63355 8.56951 5.63294 8.5689L5.62819 8.56421C5.41641 8.35293 5.13504 8.23663 4.8359 8.23663C4.63769 8.23663 4.44783 8.28864 4.28038 8.38454C4.23246 8.18846 4.13328 8.00808 3.98729 7.86139L3.98366 7.8577C3.98234 7.85639 3.98103 7.85503 3.97972 7.85371C3.76778 7.64178 3.48601 7.52503 3.18626 7.52503C2.88646 7.52503 2.60468 7.64183 2.3928 7.85387L2.39103 7.85563C2.35189 7.73383 2.31867 7.61315 2.29276 7.49402C2.28362 7.45236 2.2661 7.41318 2.24009 7.37934L0.664132 5.61987C0.577479 5.50706 0.58778 5.34749 0.688219 5.2468L4.20089 1.72862C4.25609 1.67328 4.32875 1.64535 4.40177 1.64535C4.46747 1.64535 4.53327 1.66803 4.58664 1.71393L4.61447 1.74003C4.37925 1.97146 4.23296 2.29298 4.23296 2.64817C4.23296 3.34973 4.80242 3.92065 5.50337 3.92312L7.74104 3.9515L13.1917 9.40221ZM14.3365 5.10844L14.2158 5.41263C14.1898 5.44647 14.1722 5.4856 14.1631 5.52731C13.9924 6.31057 13.3908 7.20912 12.7164 8.06843C11.8585 7.21048 7.99863 3.34872 7.99863 3.34872L5.50791 3.31711C5.13999 3.31711 4.83892 3.01605 4.83892 2.64812C4.83892 2.2802 5.13999 1.97919 5.50791 1.97919L10.178 1.33687C10.1785 1.33682 10.179 1.33656 10.1793 1.33626L10.414 1.20244C10.4673 1.15654 10.5331 1.13387 10.5988 1.13387C10.6717 1.13387 10.7445 1.16184 10.7997 1.21714L14.3124 4.73532C14.4129 4.83606 14.4232 4.99563 14.3365 5.10844Z" fill="black"/>
</g>
<defs>
<clipPath id="clip0_238_5487">
<rect width="15" height="15" fill="white"/>
</clipPath>
</defs>
</svg>
