<svg width="17" height="7" viewBox="0 0 17 7" fill="none" xmlns="http://www.w3.org/2000/svg">
<path d="M1.57422 0.363281H0.699219V4.05859C0.699219 5.28125 1.57031 6.13672 2.98047 6.13672C4.39844 6.13672 5.26562 5.28125 5.26562 4.05859V0.363281H4.39062V3.98047C4.39062 4.76953 3.87891 5.31641 2.98047 5.31641C2.08594 5.31641 1.57422 4.76953 1.57422 3.98047V0.363281ZM6.51953 6H10.7539V5.20312H7.63281V5.13672L10.6797 0.992188V0.363281H6.61328V1.16016H9.58203V1.22656L6.51953 5.37109V6ZM11.7461 4.48438C11.8086 5.49219 12.6484 6.13672 13.8984 6.13672C15.2344 6.13672 16.0703 5.46094 16.0703 4.38281C16.0703 3.53516 15.5938 3.06641 14.4375 2.79688L13.8164 2.64453C13.082 2.47266 12.7852 2.24219 12.7852 1.83984C12.7852 1.33203 13.2461 1 13.9375 1C14.5938 1 15.0469 1.32422 15.1289 1.84375H15.9805C15.9297 0.894531 15.0938 0.226562 13.9492 0.226562C12.7188 0.226562 11.8984 0.894531 11.8984 1.89844C11.8984 2.72656 12.3633 3.21875 13.3828 3.45703L14.1094 3.63281C14.8555 3.80859 15.1836 4.06641 15.1836 4.49609C15.1836 4.99609 14.668 5.35938 13.9648 5.35938C13.2109 5.35938 12.6875 5.01953 12.6133 4.48438H11.7461Z" fill="#0B192C"/>
</svg>
